<svg width="49" height="50" viewBox="0 0 49 50" fill="none" xmlns="http://www.w3.org/2000/svg">
<g clip-path="url(#clip0_1_59)">
<path d="M45.2843 32.8331C48.0897 35.4246 47.0038 39.7332 43.4313 40.6973C43.68 41.3386 44.0508 41.9648 44.1604 42.6337C44.5692 45.1493 42.7177 47.1712 40.0569 47.174C33.238 47.1809 26.4176 47.1781 19.5986 47.1726C19.003 47.1726 18.4017 47.1781 17.8159 47.0926C16.8129 46.9478 15.8225 46.723 14.8222 46.5534C14.4471 46.4899 14.4738 46.2472 14.4738 45.9824C14.4766 43.246 14.4752 40.5097 14.4752 37.7748C14.4752 32.7669 14.4696 27.7604 14.4893 22.7526C14.4907 22.4629 14.6649 22.1554 14.8166 21.8878C15.2226 21.1706 15.7536 20.5072 16.0669 19.7556C17.4282 16.48 18.7332 13.1809 20.0453 9.88466C20.1507 9.62124 20.1999 9.32057 20.2027 9.03646C20.2167 7.26419 20.2097 5.49192 20.2097 3.71965C20.2097 1.10608 22.404 -0.533787 24.9762 0.159948C25.968 0.427513 26.7955 0.951607 27.4656 1.7143C30.5815 5.2616 31.43 9.32609 30.2457 13.8112C29.9985 14.7463 29.5026 15.6194 29.1134 16.5172C29.0418 16.6841 28.9392 16.84 28.8142 17.0703C29.1078 17.0703 29.3129 17.0703 29.5194 17.0703C34.4812 17.0703 39.4416 17.0634 44.4034 17.073C46.9827 17.0772 48.9831 18.9267 48.9986 21.343C49.0098 23.0022 48.2583 24.2821 46.8225 25.1662C46.6778 25.2558 46.5275 25.3358 46.3716 25.4255C48.8033 27.8294 48.1094 31.3532 45.2843 32.8331Z" fill="white"/>
<path d="M0.00138481 35.1019C0.00138481 31.1105 -2.00091e-05 27.1205 0.00138481 23.1291C0.00138481 21.2934 1.06624 20.2397 2.922 20.2383C5.34109 20.2369 7.75878 20.2355 10.1779 20.2383C11.9002 20.241 13.017 21.3168 13.0184 23.005C13.024 31.0719 13.024 39.1402 13.0184 47.2071C13.017 48.9228 11.9016 49.9944 10.1442 49.9958C7.70821 49.9986 5.27226 49.9986 2.8363 49.9958C1.11681 49.9944 0.00278962 48.9118 0.00138481 47.2278C-0.00282964 43.1867 0.00138481 39.1443 0.00138481 35.1019Z" fill="white"/>
</g>
<defs>
<clipPath id="clip0_1_59">
<rect width="49" height="50" fill="white"/>
</clipPath>
</defs>
</svg>
