<svg width="73" height="72" viewBox="0 0 73 72" fill="none" xmlns="http://www.w3.org/2000/svg">
<g clip-path="url(#clip0_1_81)">
<path d="M19.4938 67.8717C16.7494 66.111 14.943 63.7499 14.0072 60.7496C13.7525 59.9325 13.5436 59.1026 13.3477 58.2705C13.2084 57.6743 12.9364 57.2239 12.2965 57.0824C11.6327 56.9365 11.1452 57.2003 10.7578 57.73C10.2703 58.3991 9.75887 59.0532 9.2126 59.7717C7.79578 57.8394 6.93393 55.7785 6.68582 53.5116C6.55307 52.2999 6.66189 51.0625 6.6423 49.8358C6.63577 49.4133 6.65753 48.9651 6.5226 48.577C6.09603 47.3567 5.33865 47.1551 4.30922 47.925C3.66284 48.4075 3.01646 48.8858 2.30696 49.4133C1.51476 46.6018 1.61487 43.8953 2.50936 41.2168C2.76182 40.4597 3.21015 39.7606 3.42997 38.9971C3.59102 38.4374 3.65849 37.7897 3.53443 37.23C3.36903 36.4794 2.74441 36.2006 1.96309 36.3335C1.34935 36.4365 0.739968 36.563 0 36.7046C0.0761731 36.1684 0.113172 35.6794 0.215461 35.2033C0.859668 32.2095 2.34613 29.6939 4.58998 27.5729C5.0579 27.129 5.39741 26.4449 5.54976 25.8122C5.7304 25.0659 5.31688 24.697 4.51598 24.6284C3.62802 24.5534 2.73788 24.4976 1.71716 24.4247C1.86733 24.1094 1.96962 23.8499 2.10673 23.6097C3.73248 20.7574 6.09385 18.7222 9.14078 17.4248C9.64352 17.2103 10.1724 16.8886 10.4945 16.4726C11.204 15.5547 10.9385 14.6411 9.91774 14.0771C9.28224 13.7254 8.64456 13.3758 7.70655 12.859C8.03735 12.681 8.27893 12.5995 8.45957 12.4493C11.0734 10.2919 14.0811 9.20459 17.4872 9.05447C18.1292 9.02659 18.83 8.69418 19.3632 8.3103C19.9095 7.91999 19.9117 7.30664 19.3719 6.78551C18.7147 6.15071 18.0704 5.50305 17.3522 4.79534C18.8735 4.08333 20.4188 3.75307 22.0119 3.64155C23.9554 3.5043 25.8423 3.78738 27.7074 4.36642C28.2842 4.54442 29.0067 4.54013 29.5856 4.36642C30.4888 4.09406 30.7565 3.33059 30.4518 2.43201C30.2124 1.7243 29.96 1.01873 29.7162 0.311017C29.7097 0.29386 29.738 0.263836 29.7815 0.00219727C31.2092 0.216655 32.6587 0.343186 34.0581 0.669162C36.0647 1.13454 37.8363 2.12104 39.4294 3.41637C39.7188 3.65227 40.0322 3.89032 40.3761 4.02329C41.6232 4.50153 42.435 3.89676 42.361 2.5714C42.3174 1.77577 42.2522 0.982271 42.1912 0.100848C45.6299 1.22032 48.2285 3.24051 50.098 6.18717C50.2699 6.45953 50.4157 6.75119 50.6073 7.00854C51.0817 7.64763 51.7346 7.88782 52.5312 7.81276C53.2842 7.74199 53.5562 7.22515 53.7717 6.60965C53.9981 5.96199 54.2701 5.32934 54.5226 4.69025C54.6183 4.62806 54.7119 4.56587 54.8077 4.50367C55.404 5.1835 56.0134 5.85261 56.5966 6.54531C58.3007 8.56336 59.3585 10.8731 59.7959 13.4659C59.8656 13.8733 60.0135 14.3066 60.2508 14.6432C60.9907 15.6919 61.7938 15.6834 62.5556 14.6733C63.0082 14.0728 63.4631 13.4723 63.9223 12.8761C63.9506 12.8397 64.0137 12.8289 64.1182 12.7775C65.3152 14.729 66.0291 16.8436 66.1118 19.1147C66.1596 20.4143 65.9812 21.7247 65.8528 23.0243C65.7744 23.8049 65.8419 24.5233 66.3664 25.1388C66.9105 25.7801 67.6461 25.8573 68.3034 25.3233C68.9497 24.8 69.5635 24.2381 70.3535 23.554C70.5363 24.5748 70.7605 25.4391 70.8367 26.3183C71.0652 28.9283 70.5973 31.4182 69.4764 33.8094C69.224 34.3477 69.1304 35.0532 69.2327 35.6366C69.385 36.503 69.9531 36.7496 70.8171 36.5244C71.4961 36.3464 72.1664 36.132 73.0022 35.8875C72.8455 36.5673 72.741 37.1549 72.5734 37.7232C71.7486 40.5241 70.1772 42.8381 67.9268 44.7403C67.4415 45.1499 67.0237 45.7504 66.8234 46.3444C66.5514 47.153 67.0411 47.6784 67.9094 47.6955C68.8714 47.7148 69.8355 47.6998 70.9498 47.6998C69.7463 49.8272 68.2968 51.5065 66.51 52.8768C65.5524 53.6124 64.4729 54.1958 63.4631 54.8649C63.1084 55.1008 62.7231 55.341 62.4729 55.6691C61.7198 56.6556 61.9658 57.3762 63.1388 57.7965C63.8527 58.0517 64.5665 58.3026 65.2804 58.56C65.3217 58.575 65.3522 58.6222 65.448 58.7058C63.9289 60.0462 62.2269 61.0949 60.3204 61.7168C58.8949 62.18 57.3823 62.4116 55.8937 62.6497C55.1102 62.7762 54.4769 63.025 54.1069 63.7263C53.7674 64.3739 53.7434 64.998 54.3615 65.5427C54.9426 66.0553 55.4976 66.5979 56.0656 67.1254C56.0438 67.2391 56.0221 67.3528 56.0003 67.4664C54.4224 67.7538 52.8555 68.1334 51.2645 68.3049C49.3645 68.5108 47.4755 68.2921 45.6364 67.7195C45.2142 67.5887 44.7158 67.5329 44.2871 67.6165C43.0052 67.8675 42.7048 68.5795 43.3316 69.6925C43.7234 70.3873 44.1108 71.0822 44.5504 71.8628C41.1553 72.3303 38.1366 71.6398 35.3879 69.8426C34.674 69.3751 34.1125 68.6888 33.4269 68.1741C33.0548 67.8953 32.3649 67.4836 32.1755 67.6208C31.7533 67.9211 31.355 68.5108 31.3093 69.0127C31.2223 69.9563 31.3942 70.9213 31.4617 71.955C31.194 71.9078 30.9611 71.895 30.7457 71.8242C26.9849 70.5889 24.025 68.4079 22.2665 64.8157C22.1838 64.6484 22.1185 64.4426 21.9814 64.3353C21.7246 64.138 21.3981 63.8421 21.1435 63.8807C20.8823 63.9193 20.5602 64.2667 20.4623 64.5476C20.1576 65.4312 19.9465 66.3448 19.6962 67.2477C19.6461 67.4235 19.5808 67.5972 19.4938 67.8717ZM23.4526 36.0783C23.4417 43.1211 29.2744 48.8772 36.4565 48.9094C43.595 48.9394 49.506 43.1512 49.5169 36.1255C49.5278 29.0398 43.7125 23.2323 36.5892 23.2194C29.3092 23.2023 23.4635 28.9219 23.4526 36.0783ZM14.203 25.2911C14.4011 25.1045 14.8821 24.8193 15.1149 24.3989C16.8386 21.3 19.1129 18.6879 21.9857 16.5734C22.8041 15.9707 22.9521 15.2073 22.4341 14.5811C21.9313 13.9741 21.174 13.9077 20.4275 14.5553C18.9432 15.8421 17.3892 17.0838 16.1074 18.5507C14.8429 19.9961 13.833 21.6689 12.7993 23.2966C12.1986 24.2402 12.8384 25.3168 14.203 25.2911ZM25.5702 14.4138C26.4517 14.032 27.5877 13.6139 28.6476 13.0541C29.1525 12.7882 29.2461 12.1856 28.9937 11.6301C28.7303 11.0532 28.2232 10.6972 27.6291 10.8859C26.5583 11.2291 25.5071 11.6601 24.5038 12.1663C23.9924 12.4236 23.8487 12.9898 24.0642 13.5688C24.2753 14.1328 24.6975 14.4052 25.5702 14.4138Z" fill="white"/>
<path d="M36.4891 25.7864C42.2043 25.7757 46.9183 30.4144 46.9118 36.0482C46.9053 41.7185 42.2413 46.3358 36.5174 46.3358C30.7261 46.3358 26.0534 41.7356 26.0577 36.0353C26.0621 30.3865 30.7326 25.7971 36.4891 25.7864ZM36.5414 29.6402C32.9307 29.6209 29.9839 32.4839 29.9687 36.0246C29.9535 39.546 32.8372 42.4498 36.3847 42.4841C40.0323 42.5184 42.9943 39.6425 43.0008 36.0568C43.0052 32.5483 40.0975 29.6595 36.5414 29.6402Z" fill="white"/>
<path d="M40.3913 36.0611C40.3826 38.1971 38.6045 39.9299 36.4434 39.9084C34.3171 39.887 32.5782 38.1563 32.5803 36.0589C32.5825 33.9294 34.3563 32.1987 36.5283 32.2094C38.6394 32.2223 40.3979 33.9765 40.3913 36.0611Z" fill="white"/>
</g>
<defs>
<clipPath id="clip0_1_81">
<rect width="73" height="72" fill="white"/>
</clipPath>
</defs>
</svg>
