<svg width="148" height="31" viewBox="0 0 148 31" fill="none" xmlns="http://www.w3.org/2000/svg">
<path d="M19.344 0.362L12.028 14.467V22H7.688V14.467L0.341 0.362H5.239L9.889 10.251L14.508 0.362H19.344ZM29.473 22.279C27.8197 22.279 26.3317 21.9173 25.009 21.194C23.6863 20.45 22.6427 19.4063 21.878 18.063C21.134 16.7197 20.762 15.1697 20.762 13.413C20.762 11.6563 21.1443 10.1063 21.909 8.763C22.6943 7.41967 23.7587 6.38633 25.102 5.663C26.4453 4.919 27.9437 4.547 29.597 4.547C31.2503 4.547 32.7487 4.919 34.092 5.663C35.4353 6.38633 36.4893 7.41967 37.254 8.763C38.0393 10.1063 38.432 11.6563 38.432 13.413C38.432 15.1697 38.029 16.7197 37.223 18.063C36.4377 19.4063 35.363 20.45 33.999 21.194C32.6557 21.9173 31.147 22.279 29.473 22.279ZM29.473 18.497C30.2583 18.497 30.992 18.311 31.674 17.939C32.3767 17.5463 32.9347 16.9677 33.348 16.203C33.7613 15.4383 33.968 14.5083 33.968 13.413C33.968 11.7803 33.534 10.53 32.666 9.662C31.8187 8.77333 30.775 8.329 29.535 8.329C28.295 8.329 27.2513 8.77333 26.404 9.662C25.5773 10.53 25.164 11.7803 25.164 13.413C25.164 15.0457 25.567 16.3063 26.373 17.195C27.1997 18.063 28.233 18.497 29.473 18.497ZM57.8286 4.826V22H53.4576V19.83C52.8996 20.574 52.1659 21.163 51.2566 21.597C50.3679 22.0103 49.3966 22.217 48.3426 22.217C46.9992 22.217 45.8109 21.938 44.7776 21.38C43.7442 20.8013 42.9279 19.9643 42.3286 18.869C41.7499 17.753 41.4606 16.4303 41.4606 14.901V4.826H45.8006V14.281C45.8006 15.645 46.1416 16.699 46.8236 17.443C47.5056 18.1663 48.4356 18.528 49.6136 18.528C50.8122 18.528 51.7526 18.1663 52.4346 17.443C53.1166 16.699 53.4576 15.645 53.4576 14.281V4.826H57.8286ZM66.4507 7.492C67.0087 6.58267 67.732 5.86967 68.6207 5.353C69.53 4.83633 70.5633 4.578 71.7207 4.578V9.135H70.5737C69.2097 9.135 68.1763 9.45533 67.4737 10.096C66.7917 10.7367 66.4507 11.8527 66.4507 13.444V22H62.1107V4.826H66.4507V7.492ZM80.3169 17.35H87.1059V22H74.2409V0.144999H80.3169V17.35ZM97.5594 22.217C95.8234 22.217 94.2631 21.8553 92.8784 21.132C91.5144 20.4087 90.4398 19.3753 89.6544 18.032C88.8691 16.6887 88.4764 15.1077 88.4764 13.289C88.4764 11.491 88.8691 9.92033 89.6544 8.577C90.4604 7.23367 91.5454 6.20033 92.9094 5.477C94.2941 4.75367 95.8544 4.392 97.5904 4.392C99.3264 4.392 100.876 4.75367 102.24 5.477C103.625 6.20033 104.71 7.23367 105.495 8.577C106.301 9.92033 106.704 11.491 106.704 13.289C106.704 15.087 106.301 16.668 105.495 18.032C104.71 19.3753 103.625 20.4087 102.24 21.132C100.856 21.8553 99.2954 22.217 97.5594 22.217ZM97.5594 16.947C98.4068 16.947 99.1094 16.637 99.6674 16.017C100.246 15.3763 100.535 14.467 100.535 13.289C100.535 12.111 100.246 11.212 99.6674 10.592C99.1094 9.972 98.4171 9.662 97.5904 9.662C96.7638 9.662 96.0714 9.972 95.5134 10.592C94.9554 11.212 94.6764 12.111 94.6764 13.289C94.6764 14.4877 94.9451 15.397 95.4824 16.017C96.0198 16.637 96.7121 16.947 97.5594 16.947ZM115.593 4.392C116.771 4.392 117.794 4.62967 118.662 5.105C119.551 5.58033 120.233 6.221 120.708 7.027V4.609H126.784V21.814C126.784 23.4467 126.474 24.914 125.854 26.216C125.234 27.5387 124.263 28.5927 122.94 29.378C121.638 30.1633 119.985 30.556 117.98 30.556C115.294 30.556 113.144 29.9257 111.532 28.665C109.92 27.4043 109.001 25.689 108.773 23.519H114.756C114.88 24.077 115.19 24.511 115.686 24.821C116.182 25.131 116.823 25.286 117.608 25.286C119.675 25.286 120.708 24.1287 120.708 21.814V19.582C120.233 20.388 119.551 21.0287 118.662 21.504C117.794 21.9793 116.771 22.217 115.593 22.217C114.209 22.217 112.948 21.8553 111.811 21.132C110.695 20.4087 109.807 19.3753 109.145 18.032C108.505 16.668 108.184 15.087 108.184 13.289C108.184 11.491 108.505 9.92033 109.145 8.577C109.807 7.23367 110.695 6.20033 111.811 5.477C112.948 4.75367 114.209 4.392 115.593 4.392ZM120.708 13.289C120.708 12.173 120.398 11.2947 119.778 10.654C119.179 10.0133 118.435 9.693 117.546 9.693C116.637 9.693 115.883 10.0133 115.283 10.654C114.684 11.274 114.384 12.1523 114.384 13.289C114.384 14.405 114.684 15.2937 115.283 15.955C115.883 16.5957 116.637 16.916 117.546 16.916C118.435 16.916 119.179 16.5957 119.778 15.955C120.398 15.3143 120.708 14.4257 120.708 13.289ZM138.338 22.217C136.602 22.217 135.041 21.8553 133.657 21.132C132.293 20.4087 131.218 19.3753 130.433 18.032C129.647 16.6887 129.255 15.1077 129.255 13.289C129.255 11.491 129.647 9.92033 130.433 8.577C131.239 7.23367 132.324 6.20033 133.688 5.477C135.072 4.75367 136.633 4.392 138.369 4.392C140.105 4.392 141.655 4.75367 143.019 5.477C144.403 6.20033 145.488 7.23367 146.274 8.577C147.08 9.92033 147.483 11.491 147.483 13.289C147.483 15.087 147.08 16.668 146.274 18.032C145.488 19.3753 144.403 20.4087 143.019 21.132C141.634 21.8553 140.074 22.217 138.338 22.217ZM138.338 16.947C139.185 16.947 139.888 16.637 140.446 16.017C141.024 15.3763 141.314 14.467 141.314 13.289C141.314 12.111 141.024 11.212 140.446 10.592C139.888 9.972 139.195 9.662 138.369 9.662C137.542 9.662 136.85 9.972 136.292 10.592C135.734 11.212 135.455 12.111 135.455 13.289C135.455 14.4877 135.723 15.397 136.261 16.017C136.798 16.637 137.49 16.947 138.338 16.947Z" fill="black"/>
</svg>
